# xmcd CD database file
#
# Track frame offsets:
#	150
#	24195
#	46790
#
# Disc length: 942 seconds
#
# Revision: 1
# Processed by: cddbd v1.5.2PL0 Copyright (c) Steve Scherf et al.
# Submitted via: CDex 1.70beta2
#
DISCID=1403ac03
DTITLE=藤谷美和子・大内義昭 - 愛が生まれた日
DYEAR=1994
DGENRE=JPop
TTITLE0=愛が生まれた日
TTITLE1=わずかの涙
TTITLE2=愛が生まれた日　カラオケ
EXTD=YEAR: 1994
EXTT0=
EXTT1=
EXTT2=
PLAYORDER=
